<?xml version="1.0" encoding="UTF-8"?><svg id="Layer_1" xmlns="http://www.w3.org/2000/svg" viewBox="0 0 1119.21 1603.99"><!-- V2UncmUgaW1wcmVzc2VkIHRoYXQgeW91IGZvdW5kIHRoaXMgRWFzdGVyIGVnZyA7KSAvLyBOb3VzIHNvbW1lcyBiaWVuIGltcHJlc3Npb27DqXMgcXVlIHZvdXMgYXlleiB0cm91dsOpIGNldCDFk3VmIGRlIFDDonF1ZXMgOyk= --><defs><style>.cls-1{fill:#1b525d;}.cls-2{fill:#281528;}</style></defs><path class="cls-1" d="M523.64,18.69c11.47-6.06,22.34-13.21,34.11-18.69,173.64,98.28,346.73,197.63,520.11,296.39.31,183.73.09,367.49.42,551.25-13.66,6.77-26.78,14.56-39.85,22.36-4.39-7.93-8.85-15.83-13.07-23.83,9.41-3.82,18.02-9.22,27.06-13.75.57-13.66.02-27.32.68-40.96-55.13-61.39-109.61-123.36-166.18-183.43.33,29.23,2.22,58.41,3.26,87.62,33.85,10.85,67.61,22.15,101.75,32.08-2.48,8.28-6.28,16.25-6.98,24.98-33.78-10.07-67.26-21.85-101.04-32.2-9.81,13.64-20.57,26.56-30.72,39.94,45.39,45.48,88.02,93.64,133.53,139.05-121.4,67.92-241.7,137.82-363.32,205.39-21.66,12.65-44.09,23.95-65.47,37.06-80.71-46.52-162.22-91.63-242.9-138.22-52.19-30.1-104.89-59.31-157.17-89.23,24.14-24.39,49.17-47.84,73.47-72.07,34.73-33.71,68.61-68.3,103.66-101.63,17.51-17.91,36.21-34.7,52.54-53.67,18.21,7.79,37.72,11.89,56.03,19.49,16.56-79.22,32.23-158.66,49.26-237.78-58.18,61.6-113.85,125.48-171.49,187.6-70.3,77.17-140.33,154.62-211.43,231.01-23.97-13.9-48.25-27.25-72.57-40.51.26-183.92.02-367.85.05-551.77,80.17-43.69,158.94-89.93,238.44-134.83,82.41-47.58,165.14-94.58,247.81-141.67h0ZM73.01,304.67h0c-3.96,2.93-11.98,3.82-10.78,10.4.35,107.04-.4,214.1.45,321.09-.99,35.32-.07,70.66.21,105.97,62.38-71.77,125.77-142.68,186.9-215.54,32.6,21.16,64.33,43.64,96.49,65.51,29.02-32.46,58.79-64.24,87.95-96.56,27.51-29.28,53.29-60.14,80.9-89.32,58.56,59.92,116.02,120.89,173.97,181.38,19.51,20.52,39.56,40.6,58.44,61.72,43.1-29.37,84.74-60.87,126.64-91.94,60.49,64.36,119.66,129.94,178.66,195.65.47-147.35-.28-294.76-.02-442.11-165.14-94.13-330.22-188.36-495.45-282.28C395.54,120.01,234.88,213.41,73.01,304.67h0ZM522.13,449.85h0c-8.63,39.35-16,78.96-24.21,118.38,20.71,3.07,41.21,7.48,61.88,10.97,38.71,34.73,79.65,67.02,117.35,102.91-3.33,12.27-2.69,25.13-3.42,37.72-3.49-4.79-6.63-9.79-10.22-14.49-8.73-11.68-20.9-20-31.19-30.17-27.98-24.13-55.25-49.21-84.25-72.12-18.33-3.52-36.64-7.38-54.97-10.99-9.53,45.18-18.85,90.4-27.84,135.7,37.82,35.91,75.4,72.12,112.09,109.18,8.04-6.04,13.85-14.44,21.07-21.35,29.18-29.96,58.25-60.02,87.03-90.38,12.53,9.41,22.98,21.19,34.4,31.87,57.66,55.21,114.09,111.68,170.76,167.88,18.26-11.11,37.13-21.19,55.79-31.61-50.3-50.96-98.66-103.78-148.04-155.61-63.37-66.34-126.55-132.85-190.36-198.74-28.12-30.2-57.8-58.91-85.87-89.15h0ZM264.15,566.37h0c-4.81,43.55-8.49,87.24-13.68,130.75,26.28-28.5,51.43-58.08,78.3-86.04-21.19-15.43-43.03-29.87-64.62-44.71h0ZM140.44,692.05h0c17.15-6.46,34.54-12.24,51.76-18.47,2.34-.5,5.4-2.38,7.53-.28,8.63,6.82,17.17,13.78,25.48,21,4.46-37.53,7.67-75.28,12.22-112.84-32.96,36.28-64,74.31-96.99,110.6h0ZM765.95,668.34h0c24.23,24.02,47.14,49.35,70.47,74.24,9.81-13.49,19.82-26.82,29.56-40.34-2.9-34.7-3.28-69.55-4.6-104.3-31.12,24.37-63.94,46.55-95.43,70.4h0ZM124.25,723.59h0c-7.08,2.76-15.73,3.56-20.55,10.17-13.59,16.4-28.01,32.08-41.76,48.34.35,16.58.07,33.17.24,49.76,14.23,8.07,28.85,15.41,42.96,23.73,39.4-43.24,79.53-85.83,118.31-129.59-9.98-8.45-19.79-17.06-29.37-25.93-23.4,7.48-46.74,15.17-69.83,23.52h0ZM377.49,733.33h0c103.95,101.85,208.03,203.65,312.12,305.4,12.01-7.93,24.8-14.63,37.72-20.93-27.98-27.63-56.03-55.18-84.41-82.36-66.46-65.66-133.18-131.05-200.41-195.91-2.38-2.45-4.2-5.36-6.04-8.16-13.9-5.05-28.26-8.82-41.71-15.05-5.5,5.92-11.06,11.82-17.27,17.01h0ZM334.03,775.92h0c5.14,7.05,11.98,12.55,18.05,18.78,58.27,57.42,116.47,114.92,175.19,171.89,35.29,34.56,69.9,69.86,106.02,103.57,10.85-6.56,22.01-12.55,33.12-18.64-42.56-42.35-86.02-83.82-128.58-126.17-59.81-57.59-118.12-116.69-178.17-173.99-8.42,8.3-16.33,17.22-25.64,24.56h0ZM699.99,771.95h0c-1.2,18.78-.5,37.58-1.18,56.38,8.96.9,17.98,1.37,27.01,1.77,37.11,41.52,73.16,83.99,110.86,124.99,10.26-6.06,20.41-12.39,31.31-17.27-55.79-55.49-111.94-110.62-168-165.88h0ZM596.12,855.14h0c23.33,21.42,45.41,44.19,68.18,66.22,28.12,27.88,56.93,55.09,85,83,21.54-12.1,43.06-24.3,64.74-36.17-6.56-7.08-13.38-13.94-19.44-21.44-26.94-31.02-54.47-61.48-81.42-92.5-10.8-.61-21.66-.97-32.37-2.48-3.16-.24-6.53-2.48-6.28-5.97-.85-24.28.05-48.6-.17-72.88-25.74,27.72-52.63,54.38-78.25,82.22h0ZM199.54,909.49h0c27.86,15.41,55.79,30.79,83.11,47.16,28.33-37.28,56.67-74.55,85.97-111.05-17.86-17.06-34.68-35.27-53.29-51.52-38.08,39-77.52,76.63-115.79,115.41h0ZM386.38,864.01h0c-27.53,34.99-55.28,69.83-82.71,104.89,84.88,47.35,168.82,96.47,253.92,143.49,17.1-10.22,34.82-19.39,52.35-28.9-73.96-73.68-148.49-146.91-223.56-219.48h0Z"/><path class="cls-2" d="M37.38,1597.84c-5.46,1.02-11.26,1.54-17.41,1.54-6.49,0-13.14-.51-19.97-1.54l77.82-136.19-68.61-124.93c6.14-1.02,12.11-1.54,17.92-1.54,6.48,0,13.31.51,20.48,1.54l65.54,124.93-75.78,136.19ZM230.4,1597.84c-6.49,1.02-13.14,1.54-19.97,1.54-5.81,0-11.61-.51-17.41-1.54l-75.78-136.19,65.54-124.93c7.17-1.02,13.82-1.54,19.97-1.54,5.46,0,11.26.51,17.41,1.54l-66.56,122.37,76.8,138.75Z"/><path class="cls-1" d="M297.47,1365.39h-44.54c-.34-1.7-.6-3.92-.77-6.66-.18-2.73-.26-5.46-.26-8.19s.08-5.29.26-7.68c.17-2.38.42-4.43.77-6.14h44.54v-49.15l31.74-31.23h2.05v80.38h70.66c.34,1.71.59,3.76.77,6.14.17,2.39.26,4.95.26,7.68s-.09,5.46-.26,8.19c-.18,2.74-.43,4.95-.77,6.66h-70.66v169.98c0,11.26,1.87,19.63,5.63,25.09,3.75,5.46,8.62,9.05,14.59,10.75,5.97,1.71,12.03,2.56,18.18,2.56,12.29,0,22.7-1.54,31.23-4.61,1.36,4.44,2.47,9.05,3.33,13.82.85,4.78,1.45,9.73,1.79,14.85-12.98,3.75-27.31,5.63-43.01,5.63-19.46,0-35.25-5.21-47.36-15.62-12.12-10.41-18.18-27.39-18.18-50.94v-171.52Z"/><path class="cls-1" d="M459.25,1336.72c2.73-.34,5.38-.59,7.94-.77,2.56-.17,5.03-.26,7.42-.26,2.73,0,5.29.09,7.68.26,2.38.18,4.94.43,7.68.77.68,6.14,1.19,13.4,1.54,21.76.34,8.37.51,15.96.51,22.78,6.82-12.62,16.38-23.3,28.67-32s28.5-13.06,48.64-13.06h5.38c1.87,0,4.01.18,6.4.51,1.02,5.46,1.54,10.93,1.54,16.38s-.51,10.75-1.54,15.87c-2.74-.34-4.86-.51-6.4-.51h-4.86c-23.22,0-41.82,7.34-55.81,22.02-14,14.68-20.99,39.09-20.99,73.22v134.14c-2.05.34-4.86.59-8.45.77-3.58.17-6.4.26-8.45.26-1.71,0-4.44-.09-8.19-.26-3.76-.18-6.66-.43-8.7-.77v-261.12Z"/><path class="cls-1" d="M628.72,1399.19c8.19-20.82,20.9-37.46,38.14-49.92,17.23-12.46,39.34-18.69,66.3-18.69,22.86,0,42.24,5.04,58.11,15.1,15.87,10.07,27.9,23.98,36.1,41.73,8.19,17.75,12.29,38.06,12.29,60.93,0,3.07-.09,7-.26,11.78-.18,4.78-.43,8.88-.77,12.29h-186.37c0,34.82,8.02,60.42,24.06,76.8,16.04,16.38,40.1,24.58,72.19,24.58,12.97,0,25-1.1,36.1-3.33,11.09-2.22,21.93-5.2,32.51-8.96,1.7,3.76,3.07,8.37,4.1,13.82,1.02,5.46,1.7,10.42,2.05,14.85-9.9,4.44-21.5,7.85-34.82,10.24-13.31,2.38-27.82,3.58-43.52,3.58-30.04,0-54.53-5.72-73.47-17.15-18.94-11.43-32.86-27.39-41.73-47.87-8.88-20.48-13.31-43.86-13.31-70.14s4.1-48.81,12.29-69.63ZM798.45,1403.54c-4.95-12.8-12.72-23.21-23.3-31.23-10.58-8.02-24.58-12.03-41.98-12.03-23.9,0-42.5,7.34-55.81,22.02-13.31,14.68-21.34,35.33-24.06,61.95h152.58c0-14.34-2.48-27.9-7.42-40.7Z"/><path class="cls-1" d="M913.9,1221.52c2.05-.34,4.86-.59,8.45-.77,3.58-.17,6.4-.26,8.45-.26,1.7,0,4.43.09,8.19.26,3.75.18,6.66.43,8.7.77v376.32c-2.05.34-4.95.59-8.7.77-3.76.17-6.49.26-8.19.26-2.05,0-4.86-.09-8.45-.26-3.58-.18-6.4-.43-8.45-.77v-376.32ZM1119.21,1597.84c-6.14,1.02-12.29,1.54-18.43,1.54-7.51,0-14.85-.51-22.02-1.54l-109.57-134.66,93.7-126.46c5.8-1.02,11.78-1.54,17.92-1.54,7.85,0,15.02.51,21.5,1.54l-93.18,122.88,110.08,138.24Z"/></svg>