<?xml version="1.0" encoding="UTF-8"?><svg id="a" xmlns="http://www.w3.org/2000/svg" viewBox="0 0 1119.21 383.49"><defs><style>.b{fill:#1b525d;}.c{fill:#281528;}</style></defs><path class="c" d="M37.38,377.34c-5.46,1.02-11.26,1.54-17.41,1.54-6.49,0-13.14-.51-19.97-1.54l77.82-136.19L9.22,116.22c6.14-1.02,12.11-1.54,17.92-1.54,6.48,0,13.31.51,20.48,1.54l65.54,124.93-75.78,136.19ZM230.4,377.34c-6.49,1.02-13.14,1.54-19.97,1.54-5.81,0-11.61-.51-17.41-1.54l-75.78-136.19,65.54-124.93c7.17-1.02,13.82-1.54,19.97-1.54,5.46,0,11.26.51,17.41,1.54l-66.56,122.37,76.8,138.75Z"/><path class="b" d="M297.47,144.9h-44.54c-.34-1.7-.6-3.92-.77-6.66-.18-2.73-.26-5.46-.26-8.19s.08-5.29.26-7.68c.17-2.38.42-4.43.77-6.14h44.54v-49.15l31.74-31.23h2.05v80.38h70.66c.34,1.71.59,3.76.77,6.14.17,2.39.26,4.95.26,7.68s-.09,5.46-.26,8.19c-.18,2.74-.43,4.95-.77,6.66h-70.66v169.98c0,11.26,1.87,19.63,5.63,25.09,3.75,5.46,8.62,9.05,14.59,10.75,5.97,1.71,12.03,2.56,18.18,2.56,12.29,0,22.7-1.54,31.23-4.61,1.36,4.44,2.47,9.05,3.33,13.82.85,4.78,1.45,9.73,1.79,14.85-12.98,3.75-27.31,5.63-43.01,5.63-19.46,0-35.25-5.21-47.36-15.62-12.12-10.41-18.18-27.39-18.18-50.94v-171.52Z"/><path class="b" d="M459.25,116.22c2.73-.34,5.38-.59,7.94-.77,2.56-.17,5.03-.26,7.42-.26,2.73,0,5.29.09,7.68.26,2.38.18,4.94.43,7.68.77.68,6.14,1.19,13.4,1.54,21.76.34,8.37.51,15.96.51,22.78,6.82-12.62,16.38-23.3,28.67-32s28.5-13.06,48.64-13.06h5.38c1.87,0,4.01.18,6.4.51,1.02,5.46,1.54,10.93,1.54,16.38s-.51,10.75-1.54,15.87c-2.74-.34-4.86-.51-6.4-.51h-4.86c-23.22,0-41.82,7.34-55.81,22.02-14,14.68-20.99,39.09-20.99,73.22v134.14c-2.05.34-4.86.59-8.45.77-3.58.17-6.4.26-8.45.26-1.71,0-4.44-.09-8.19-.26-3.76-.18-6.66-.43-8.7-.77V116.22Z"/><path class="b" d="M628.72,178.69c8.19-20.82,20.9-37.46,38.14-49.92,17.23-12.46,39.34-18.69,66.3-18.69,22.86,0,42.24,5.04,58.11,15.1,15.87,10.07,27.9,23.98,36.1,41.73,8.19,17.75,12.29,38.06,12.29,60.93,0,3.07-.09,7-.26,11.78-.18,4.78-.43,8.88-.77,12.29h-186.37c0,34.82,8.02,60.42,24.06,76.8,16.04,16.38,40.1,24.58,72.19,24.58,12.97,0,25-1.1,36.1-3.33,11.09-2.22,21.93-5.2,32.51-8.96,1.7,3.76,3.07,8.37,4.1,13.82,1.02,5.46,1.7,10.42,2.05,14.85-9.9,4.44-21.5,7.85-34.82,10.24-13.31,2.38-27.82,3.58-43.52,3.58-30.04,0-54.53-5.72-73.47-17.15-18.94-11.43-32.86-27.39-41.73-47.87-8.88-20.48-13.31-43.86-13.31-70.14s4.1-48.81,12.29-69.63ZM798.45,183.04c-4.95-12.8-12.72-23.21-23.3-31.23-10.58-8.02-24.58-12.03-41.98-12.03-23.9,0-42.5,7.34-55.81,22.02-13.31,14.68-21.34,35.33-24.06,61.95h152.58c0-14.34-2.48-27.9-7.42-40.7Z"/><path class="b" d="M913.9,1.02c2.05-.34,4.86-.59,8.45-.77,3.58-.17,6.4-.26,8.45-.26,1.7,0,4.43.09,8.19.26,3.75.18,6.66.43,8.7.77v376.32c-2.05.34-4.95.59-8.7.77-3.76.17-6.49.26-8.19.26-2.05,0-4.86-.09-8.45-.26-3.58-.18-6.4-.43-8.45-.77V1.02ZM1119.21,377.34c-6.14,1.02-12.29,1.54-18.43,1.54-7.51,0-14.85-.51-22.02-1.54l-109.57-134.66,93.7-126.46c5.8-1.02,11.78-1.54,17.92-1.54,7.85,0,15.02.51,21.5,1.54l-93.18,122.88,110.08,138.24Z"/></svg>